<svg width="113" height="33" viewBox="0 0 113 33" fill="none" xmlns="http://www.w3.org/2000/svg">
<path d="M6.6 25.408C5.672 25.408 4.728 25.256 3.768 24.952C2.808 24.648 1.872 24.16 0.96 23.488L2.328 20.968C3.016 21.4 3.752 21.728 4.536 21.952C5.32 22.16 6.032 22.264 6.672 22.264C7.328 22.264 7.872 22.064 8.304 21.664C8.752 21.264 8.976 20.728 8.976 20.056C8.976 19.56 8.832 19.152 8.544 18.832C8.272 18.496 7.904 18.208 7.44 17.968C6.976 17.728 6.464 17.496 5.904 17.272C5.36 17.048 4.808 16.8 4.248 16.528C3.688 16.24 3.176 15.896 2.712 15.496C2.248 15.08 1.872 14.568 1.584 13.96C1.312 13.336 1.176 12.568 1.176 11.656C1.176 10.44 1.464 9.432 2.04 8.632C2.632 7.816 3.384 7.2 4.296 6.784C5.208 6.368 6.152 6.16 7.128 6.16C7.896 6.16 8.64 6.28 9.36 6.52C10.08 6.76 10.72 7.12 11.28 7.6C11.84 8.08 12.256 8.696 12.528 9.448L9.888 10.888C9.568 10.312 9.144 9.888 8.616 9.616C8.088 9.328 7.552 9.184 7.008 9.184C6.624 9.184 6.264 9.272 5.928 9.448C5.592 9.608 5.312 9.856 5.088 10.192C4.88 10.512 4.776 10.92 4.776 11.416C4.776 11.896 4.92 12.304 5.208 12.64C5.496 12.96 5.872 13.24 6.336 13.48C6.8 13.72 7.312 13.952 7.872 14.176C8.432 14.4 8.992 14.656 9.552 14.944C10.112 15.216 10.624 15.552 11.088 15.952C11.552 16.352 11.928 16.848 12.216 17.44C12.504 18.032 12.648 18.76 12.648 19.624C12.648 20.856 12.376 21.904 11.832 22.768C11.288 23.632 10.552 24.288 9.624 24.736C8.712 25.184 7.704 25.408 6.6 25.408ZM24.3615 6.568V9.568H19.8975L20.4495 9.016V25H16.8495V9.016L17.3775 9.568H13.0815V6.568H24.3615ZM32.1276 25.408C30.7676 25.408 29.5996 25.152 28.6236 24.64C27.6476 24.112 26.8956 23.304 26.3676 22.216C25.8396 21.112 25.5756 19.704 25.5756 17.992V6.568H29.1756V18.112C29.1756 19.152 29.2956 19.976 29.5356 20.584C29.7916 21.192 30.1436 21.624 30.5916 21.88C31.0556 22.136 31.6076 22.264 32.2476 22.264C33.2396 22.264 34.0076 21.928 34.5516 21.256C35.1116 20.584 35.3916 19.416 35.3916 17.752V6.568H38.9916V17.944C38.9916 19.688 38.6956 21.112 38.1036 22.216C37.5116 23.304 36.6956 24.112 35.6556 24.64C34.6316 25.152 33.4556 25.408 32.1276 25.408ZM68.4195 6.568V25H64.8195V6.568H68.4195ZM78.5507 25.408C76.8227 25.408 75.3907 25 74.2547 24.184C73.1347 23.352 72.2947 22.216 71.7347 20.776C71.1907 19.336 70.9187 17.696 70.9187 15.856C70.9187 14.496 71.0787 13.232 71.3987 12.064C71.7187 10.88 72.1987 9.848 72.8387 8.968C73.4787 8.088 74.2787 7.4 75.2387 6.904C76.1987 6.408 77.3187 6.16 78.5987 6.16C80.3267 6.16 81.7427 6.576 82.8467 7.408C83.9667 8.24 84.7987 9.384 85.3427 10.84C85.8867 12.296 86.1587 13.96 86.1587 15.832C86.1587 17.192 85.9987 18.456 85.6787 19.624C85.3747 20.776 84.9107 21.784 84.2867 22.648C83.6627 23.512 82.8707 24.192 81.9107 24.688C80.9667 25.168 79.8467 25.408 78.5507 25.408ZM78.5507 22.264C79.4627 22.264 80.1907 21.976 80.7347 21.4C81.2947 20.808 81.7027 20.024 81.9587 19.048C82.2147 18.072 82.3427 17.008 82.3427 15.856C82.3427 14.624 82.2147 13.52 81.9587 12.544C81.7187 11.552 81.3187 10.768 80.7587 10.192C80.2147 9.6 79.4947 9.304 78.5987 9.304C77.6867 9.304 76.9507 9.608 76.3907 10.216C75.8307 10.808 75.4147 11.6 75.1427 12.592C74.8867 13.568 74.7587 14.648 74.7587 15.832C74.7587 17.016 74.8867 18.096 75.1427 19.072C75.3987 20.048 75.7987 20.824 76.3427 21.4C76.9027 21.976 77.6387 22.264 78.5507 22.264ZM93.6703 25.408C92.7423 25.408 91.7983 25.256 90.8383 24.952C89.8783 24.648 88.9423 24.16 88.0303 23.488L89.3983 20.968C90.0863 21.4 90.8223 21.728 91.6063 21.952C92.3903 22.16 93.1023 22.264 93.7423 22.264C94.3983 22.264 94.9423 22.064 95.3743 21.664C95.8223 21.264 96.0463 20.728 96.0463 20.056C96.0463 19.56 95.9023 19.152 95.6143 18.832C95.3423 18.496 94.9743 18.208 94.5103 17.968C94.0463 17.728 93.5343 17.496 92.9743 17.272C92.4303 17.048 91.8783 16.8 91.3183 16.528C90.7583 16.24 90.2463 15.896 89.7823 15.496C89.3183 15.08 88.9423 14.568 88.6543 13.96C88.3823 13.336 88.2463 12.568 88.2463 11.656C88.2463 10.44 88.5343 9.432 89.1103 8.632C89.7023 7.816 90.4543 7.2 91.3663 6.784C92.2783 6.368 93.2223 6.16 94.1983 6.16C94.9663 6.16 95.7103 6.28 96.4303 6.52C97.1503 6.76 97.7903 7.12 98.3503 7.6C98.9103 8.08 99.3263 8.696 99.5983 9.448L96.9583 10.888C96.6383 10.312 96.2143 9.888 95.6863 9.616C95.1583 9.328 94.6223 9.184 94.0783 9.184C93.6943 9.184 93.3343 9.272 92.9983 9.448C92.6623 9.608 92.3823 9.856 92.1583 10.192C91.9503 10.512 91.8463 10.92 91.8463 11.416C91.8463 11.896 91.9903 12.304 92.2783 12.64C92.5663 12.96 92.9423 13.24 93.4063 13.48C93.8703 13.72 94.3823 13.952 94.9423 14.176C95.5023 14.4 96.0623 14.656 96.6223 14.944C97.1823 15.216 97.6943 15.552 98.1583 15.952C98.6223 16.352 98.9983 16.848 99.2863 17.44C99.5743 18.032 99.7183 18.76 99.7183 19.624C99.7183 20.856 99.4463 21.904 98.9023 22.768C98.3583 23.632 97.6223 24.288 96.6943 24.736C95.7823 25.184 94.7743 25.408 93.6703 25.408Z" fill="white"/>
<path d="M104.297 25.0703C103.766 25.0703 103.285 25.0078 102.855 24.8828C102.434 24.75 102.07 24.5625 101.766 24.3203C101.133 23.8359 100.816 23.1797 100.816 22.3516C100.816 21.7266 100.98 21.2031 101.309 20.7812C101.645 20.3438 102.055 20.125 102.539 20.125C102.828 20.125 103.086 20.1992 103.312 20.3477C103.539 20.4883 103.691 20.6719 103.77 20.8984C103.527 21.0391 103.336 21.2344 103.195 21.4844C103.055 21.7344 102.984 21.9961 102.984 22.2695C102.984 22.5977 103.086 22.875 103.289 23.1016C103.5 23.3281 103.801 23.4414 104.191 23.4414C104.684 23.4414 105.164 23.2422 105.633 22.8438C106.109 22.4453 106.551 21.8867 106.957 21.168C107.355 20.4492 107.699 19.6055 107.988 18.6367C108.277 17.6602 108.496 16.6133 108.645 15.4961L108.562 15.5195C108.281 16.2539 107.816 16.8125 107.168 17.1953C106.52 17.5781 105.742 17.7695 104.836 17.7695C104.281 17.7695 103.777 17.6758 103.324 17.4883C102.871 17.3008 102.484 17.0273 102.164 16.668C101.836 16.3008 101.582 15.8633 101.402 15.3555C101.23 14.8398 101.145 14.2617 101.145 13.6211C101.145 12.4492 101.457 11.3477 102.082 10.3164C102.379 9.82422 102.734 9.37109 103.148 8.95703C103.57 8.54297 104.027 8.19141 104.52 7.90234C105.543 7.29297 106.652 6.98828 107.848 6.98828C109.332 6.98828 110.445 7.51562 111.188 8.57031C111.938 9.625 112.312 11.2031 112.312 13.3047C112.312 14.3906 112.219 15.4375 112.031 16.4453C111.852 17.4531 111.586 18.3945 111.234 19.2695C110.891 20.1367 110.477 20.9297 109.992 21.6484C109.508 22.3594 108.969 22.9688 108.375 23.4766C107.773 23.9922 107.129 24.3867 106.441 24.6602C105.754 24.9336 105.039 25.0703 104.297 25.0703ZM105.879 16.0234C106.926 16.0234 107.703 15.6094 108.211 14.7812C108.656 14.0391 108.879 12.9805 108.879 11.6055C108.879 10.8164 108.785 10.1719 108.598 9.67188C108.324 8.9375 107.832 8.57031 107.121 8.57031C106.715 8.57031 106.332 8.71484 105.973 9.00391C105.613 9.28516 105.301 9.66797 105.035 10.1523C104.77 10.6289 104.562 11.1641 104.414 11.7578C104.266 12.3516 104.191 12.9492 104.191 13.5508C104.191 14.3867 104.352 15.0156 104.672 15.4375C104.969 15.8281 105.371 16.0234 105.879 16.0234Z" fill="#00FB82"/>
<path d="M60.9386 17.9017L56.3741 20.802C56.3619 20.741 56.3522 20.68 56.3352 20.6191C56.3014 20.4315 56.2578 20.2486 56.207 20.0657C55.7227 18.2427 54.7112 16.5913 53.2915 15.3055C53.1793 15.1164 53.0224 14.9557 52.8338 14.8366L52.0106 14.3136C51.9402 14.2666 51.87 14.2221 51.7998 14.1801L49.3107 12.5972C49.052 12.4306 48.7443 12.3505 48.4343 12.3691C48.1243 12.3877 47.8291 12.5041 47.5937 12.7003C47.5409 12.7428 47.4915 12.7891 47.4459 12.8388C47.335 12.9565 47.2479 13.0933 47.1893 13.2421C47.2129 13.0473 47.2426 12.8551 47.279 12.6653C47.6058 10.941 48.3996 9.33161 49.5793 8.0018C49.7918 7.76039 50.0177 7.52811 50.2549 7.30773L59.5753 13.2334L59.5777 13.2357C59.58 13.2357 59.5826 13.238 59.585 13.2405H59.5873C59.5911 13.2433 59.5952 13.2456 59.5996 13.2473L60.9386 14.0987C61.2643 14.3056 61.5318 14.5877 61.7169 14.9197C61.902 15.2516 61.9989 15.6229 61.9989 16.0002C61.9989 16.3775 61.902 16.7488 61.7169 17.0807C61.5318 17.4127 61.2643 17.6948 60.9386 17.9017Z" fill="#00D0AB"/>
<path d="M56.3742 20.802L52.5555 23.2289L50.9669 24.2372L50.9403 24.256C50.9389 24.2573 50.9372 24.2581 50.9353 24.2583C50.933 24.2608 50.9306 24.2631 50.9282 24.2631C50.9279 24.2631 50.9276 24.2631 50.9273 24.2632C50.9269 24.2633 50.9267 24.2634 50.9264 24.2637C50.9262 24.2639 50.926 24.2641 50.9258 24.2644C50.9257 24.2647 50.9256 24.265 50.9256 24.2654C50.9233 24.2654 50.9209 24.2676 50.9183 24.2676L50.916 24.2702L47.3709 26.5263C47.3688 26.5282 47.3664 26.5299 47.3638 26.5311C47.3612 26.5334 47.3612 26.5334 47.3588 26.5334L45.6395 27.6261C45.2852 27.8516 44.8745 27.9801 44.4509 27.9979C44.0274 28.0157 43.6067 27.9221 43.2336 27.7271C42.8605 27.5322 42.5488 27.2431 42.3316 26.8904C42.1144 26.5378 41.9998 26.1349 42 25.7243V21.1191C42.0236 21.1236 42.051 21.1259 42.0751 21.1284C42.5332 21.1896 42.9952 21.2202 43.4577 21.2199C43.6395 21.2199 43.8187 21.2151 43.9979 21.2057C44.0026 21.2057 44.005 21.2034 44.0099 21.2034C46.1127 21.0964 48.1298 20.3625 49.7852 19.1023C49.7889 19.1007 49.7922 19.0983 49.7949 19.0952L52.8338 17.1631C53.0758 17.0101 53.2643 16.7898 53.3745 16.5312C53.4847 16.2725 53.5115 15.9876 53.4514 15.7139C53.4203 15.5707 53.3664 15.433 53.2915 15.3059C54.7113 16.5917 55.7227 18.2431 56.207 20.0661C56.2578 20.249 56.3015 20.4319 56.3352 20.6196C56.3522 20.6804 56.3619 20.7414 56.3742 20.802Z" fill="#00FB82"/>
<path d="M49.3107 19.4026L49.7852 19.1024C48.1298 20.3626 46.1127 21.0965 44.0099 21.2035C44.005 21.2035 44.0026 21.2058 43.9979 21.2058C43.8187 21.2152 43.6395 21.22 43.4577 21.22C42.9952 21.2203 42.5332 21.1897 42.0751 21.1285C42.0515 21.126 42.0243 21.1237 42 21.1192V6.27586C41.9998 5.86529 42.1144 5.46233 42.3316 5.1097C42.5488 4.7572 42.8605 4.46801 43.2336 4.27301C43.6067 4.07801 44.0274 3.98451 44.4509 4.00235C44.8745 4.02018 45.2852 4.14865 45.6395 4.37406L49.0423 6.53373C49.0492 6.53782 49.0556 6.54258 49.0616 6.54788V6.55019C49.066 6.55197 49.07 6.55435 49.0737 6.55728H49.0763L49.0786 6.55956C49.0813 6.5608 49.0837 6.56242 49.0859 6.56436L50.2554 7.30756C50.0182 7.52793 49.793 7.76019 49.5798 8.0016C48.4001 9.33142 47.6063 10.9408 47.2795 12.6651C47.2432 12.8549 47.2141 13.0471 47.1898 13.2419C47.1198 13.4062 47.0844 13.5824 47.0857 13.7601V18.2394C47.0857 18.4294 47.1258 18.6175 47.2037 18.7919C47.2815 18.9664 47.3953 19.1236 47.5382 19.2538C47.6811 19.3841 47.85 19.4847 48.0345 19.5494C48.2191 19.6141 48.4153 19.6415 48.6112 19.63C48.6283 19.6296 48.6453 19.6281 48.6622 19.6255C48.8944 19.6056 49.1175 19.5289 49.3107 19.4026Z" fill="#00AA58"/>
<g style="mix-blend-mode:multiply" opacity="0.2">
<g style="mix-blend-mode:multiply" opacity="0.2">
<path d="M56.2167 20.0919C56.2144 20.0825 56.2094 20.0755 56.207 20.0661C56.1296 19.8528 56.0496 19.6393 55.9648 19.4306C55.8753 19.2125 55.7783 18.9992 55.6766 18.7882C55.5701 18.5795 55.4641 18.3708 55.3461 18.1666C55.228 17.9625 55.1088 17.7634 54.983 17.5665C54.8522 17.3718 54.7165 17.1818 54.5786 16.995C54.4408 16.8082 54.2904 16.6244 54.1402 16.4464C53.9901 16.2683 53.8279 16.0991 53.6657 15.9281C53.5949 15.8554 53.5227 15.785 53.4502 15.7146C53.4192 15.5714 53.3652 15.4337 53.2904 15.3065C53.1781 15.1175 53.0213 14.9568 52.8326 14.8377L52.0094 14.3146C51.9391 14.2677 51.8688 14.2232 51.7987 14.1811L49.3095 12.5983C49.0509 12.4317 48.7431 12.3516 48.4331 12.3702C48.1231 12.3888 47.8279 12.5051 47.5925 12.7014C47.7976 12.5041 48.0607 12.3731 48.3456 12.3262C48.64 12.2741 48.9438 12.3118 49.2151 12.4341C49.3482 12.4952 49.4693 12.5713 49.5878 12.6399L49.9488 12.8486L50.6655 13.2777C51.1423 13.5637 51.6169 13.8537 52.0892 14.1475L52.7963 14.5908C52.9268 14.6654 53.0494 14.7526 53.162 14.8509C53.2696 14.9483 53.3618 15.0605 53.4355 15.184C53.6076 15.3459 53.7772 15.51 53.9393 15.6812C54.1065 15.8593 54.2637 16.0422 54.4162 16.2322C54.5687 16.4221 54.7094 16.6144 54.8473 16.8114C54.983 17.0131 55.1088 17.217 55.2299 17.4257C55.351 17.6344 55.4599 17.8454 55.5605 18.0635C55.661 18.2816 55.7542 18.4997 55.8366 18.7226C55.919 18.9455 55.9891 19.1727 56.0545 19.4002L56.144 19.7449L56.2167 20.0919Z" fill="black"/>
</g>
</g>
<g style="mix-blend-mode:multiply" opacity="0.2">
<g style="mix-blend-mode:multiply" opacity="0.2">
<path d="M49.594 7.98283C49.589 7.98992 49.5843 7.99472 49.5793 8.00158C49.289 8.38749 49.023 8.79004 48.7828 9.20701C48.6567 9.41276 48.5453 9.62902 48.4365 9.84482C48.3277 10.0606 48.2257 10.281 48.1313 10.5014C48.0418 10.724 47.9497 10.9469 47.8716 11.1744C47.7934 11.4018 47.7262 11.6293 47.6608 11.8591C47.5954 12.0888 47.5397 12.3234 47.4955 12.5579C47.4832 12.6141 47.4688 12.6797 47.4615 12.7289L47.4445 12.8393C47.3336 12.9569 47.2465 13.0937 47.1879 13.2426C47.1179 13.4069 47.0825 13.5831 47.0838 13.7608V18.2394C47.0427 17.8222 47.0234 17.4048 46.9941 16.9851C46.9724 16.5676 46.9507 16.1502 46.9386 15.7328C46.9266 15.3153 46.915 14.8981 46.907 14.4807L46.8973 13.8545C46.8925 13.741 46.8982 13.6272 46.9143 13.5146C46.9311 13.4047 46.9603 13.2969 47.0014 13.1932L47.0524 12.8533L47.0814 12.6727C47.0911 12.6025 47.105 12.5485 47.1202 12.4852C47.1674 12.2436 47.2316 12.0022 47.2993 11.7628C47.3671 11.5235 47.4542 11.2917 47.5439 11.0594C47.6336 10.8271 47.7328 10.5999 47.8418 10.377C47.9556 10.1566 48.0718 9.93626 48.2002 9.72274C48.3286 9.50923 48.4665 9.30303 48.6119 9.10368C48.7573 8.90434 48.9169 8.7098 49.0791 8.52234C49.2412 8.33418 49.413 8.15411 49.594 7.98283Z" fill="black"/>
</g>
</g>
<g style="mix-blend-mode:multiply" opacity="0.2">
<g style="mix-blend-mode:multiply" opacity="0.2">
<path d="M52.8338 17.163C52.3593 17.5313 51.8725 17.8829 51.3834 18.2299C50.9016 18.5676 50.4155 18.8961 49.9233 19.2195L49.8942 19.2406C49.48 19.5652 49.0385 19.8558 48.5744 20.1093C48.3421 20.2311 48.1046 20.3507 47.8626 20.4563C47.6206 20.5619 47.3685 20.6556 47.1192 20.7423C46.9932 20.7823 46.8697 20.8291 46.7415 20.8618C46.6133 20.8945 46.4849 20.9322 46.3567 20.9627C46.1 21.0271 45.8399 21.0788 45.5777 21.1174C45.4469 21.1339 45.3161 21.1574 45.1853 21.1668C45.0522 21.1807 44.9214 21.1926 44.7883 21.1995C44.5254 21.2148 44.2619 21.2171 43.9988 21.2066C44.0036 21.2066 44.0059 21.2043 44.0109 21.2043C44.5267 21.1268 45.0352 21.0308 45.5316 20.9071C45.7809 20.8385 46.0305 20.7699 46.275 20.6913C46.522 20.6163 46.7618 20.5249 47.0014 20.4357C47.477 20.2464 47.9404 20.0296 48.3891 19.7863C48.4809 19.7346 48.5706 19.6806 48.6627 19.6262C48.895 19.6064 49.1183 19.5297 49.3116 19.4033L49.7861 19.1032C49.7899 19.1015 49.7932 19.0991 49.7958 19.0961L52.8338 17.163Z" fill="black"/>
</g>
</g>
<g style="mix-blend-mode:screen" opacity="0.4">
<g style="mix-blend-mode:screen" opacity="0.4">
<path d="M47.3588 26.5334L45.6395 27.6261C45.2852 27.8516 44.8745 27.9801 44.4509 27.9979C44.0274 28.0157 43.6067 27.9221 43.2336 27.7271C42.8605 27.5322 42.5488 27.2431 42.3316 26.8904C42.1144 26.5378 41.9998 26.1349 42 25.7243V19.9333C42 19.9333 42.017 20.1304 42.0387 20.4774C42.046 20.658 42.0607 20.8761 42.0751 21.1294C42.0873 21.3662 42.1018 21.6286 42.1114 21.9171C42.135 22.5115 42.1575 23.2044 42.1695 23.9501C42.1745 24.3207 42.1865 24.7045 42.1865 25.0968C42.1889 25.2913 42.1889 25.4884 42.1915 25.6855C42.1942 25.8685 42.2169 26.0508 42.2592 26.2293C42.3472 26.5833 42.5301 26.9085 42.7894 27.1721C43.0422 27.429 43.3554 27.6229 43.7023 27.7372C44.0296 27.8427 44.3771 27.8756 44.7193 27.8334C44.7993 27.817 44.8791 27.8028 44.9592 27.7863C45.0392 27.7699 45.1043 27.7372 45.1794 27.7162C45.2158 27.7045 45.2521 27.6949 45.2861 27.6809L45.3949 27.627C45.4629 27.5918 45.5307 27.5584 45.5961 27.5262C46.1213 27.2167 46.5694 26.9727 46.8794 26.7969C47.1433 26.6458 47.3152 26.5569 47.3588 26.5334Z" fill="black"/>
</g>
</g>
<g style="mix-blend-mode:multiply" opacity="0.35">
<g style="mix-blend-mode:multiply" opacity="0.35">
<path d="M50.9184 24.2682C50.9213 24.2682 50.9239 24.2656 50.9265 24.2629V24.2656C50.9239 24.2656 50.9213 24.2682 50.9184 24.2682Z" fill="black"/>
</g>
</g>
<g style="mix-blend-mode:multiply" opacity="0.35">
<g style="mix-blend-mode:multiply" opacity="0.35">
<path d="M60.9386 17.9018L56.3742 20.8021L52.5555 23.229L50.9403 24.2561C50.9389 24.2574 50.9372 24.2582 50.9353 24.2584C50.9983 24.2138 51.2139 24.0615 51.5505 23.824C51.9596 23.5449 52.5361 23.1345 53.2431 22.6654C53.9502 22.1963 54.7663 21.6386 55.6549 21.0616C55.8777 20.9162 56.1053 20.7685 56.3352 20.6185C56.5651 20.4686 56.793 20.3213 57.0255 20.1707C57.4953 19.8705 57.9698 19.5656 58.4469 19.2608C58.924 18.9561 59.4034 18.6582 59.8756 18.3604C60.1105 18.2127 60.3454 18.0673 60.5779 17.9219C60.6891 17.8492 60.8175 17.7811 60.9143 17.7061L61.067 17.6005C61.1128 17.5607 61.1565 17.5161 61.2025 17.4763C61.5457 17.1463 61.7699 16.7179 61.8418 16.2547C61.8996 15.8335 61.8333 15.4051 61.6506 15.0188C61.6034 14.9297 61.5512 14.8476 61.5028 14.7656C61.4447 14.6883 61.389 14.6131 61.3333 14.5404C61.2703 14.4748 61.2075 14.4114 61.1468 14.3506C61.0791 14.2919 61.0052 14.2379 60.941 14.1865C60.6674 13.9894 60.4131 13.8182 60.2122 13.6776C59.8635 13.4314 59.6407 13.2789 59.5873 13.2392C59.5911 13.242 59.5952 13.2443 59.5996 13.246L60.9386 14.0973C61.2646 14.3042 61.5324 14.5864 61.7177 14.9185C61.903 15.2506 62 15.6221 62 15.9996C62 16.377 61.903 16.7485 61.7177 17.0806C61.5324 17.4127 61.2646 17.6949 60.9386 17.9018Z" fill="black"/>
</g>
</g>
<g style="mix-blend-mode:screen" opacity="0.4">
<g style="mix-blend-mode:screen" opacity="0.4">
<path d="M49.0731 6.55728C49.0695 6.55435 49.0655 6.55198 49.0611 6.55019C48.986 6.5079 48.7561 6.37668 48.4049 6.17505C47.9764 5.92176 47.3565 5.57245 46.6275 5.12916C46.2644 4.91336 45.8647 4.65778 45.4506 4.42803C45.0252 4.20034 44.534 4.11553 44.0536 4.18663C43.8037 4.2248 43.5622 4.30322 43.3392 4.41866C43.1127 4.53959 42.9089 4.69641 42.7363 4.88296C42.6905 4.92708 42.6499 4.97577 42.6152 5.02835C42.5765 5.0823 42.5375 5.13145 42.5014 5.18542C42.4355 5.29481 42.3796 5.40955 42.3343 5.52833C42.3149 5.58685 42.2859 5.64789 42.2712 5.70641L42.2325 5.88473C42.2166 5.94926 42.2087 6.01542 42.2089 6.08178L42.1943 6.28753L42.1869 7.93348C42.1822 8.47984 42.1773 9.01684 42.1699 9.53966C42.1579 10.5809 42.1265 11.5514 42.1095 12.3865C42.0925 13.2216 42.0538 13.9129 42.0368 14.4007C42.0151 14.886 42.0005 15.1629 42.0005 15.1629V6.27564C42.0003 5.86506 42.1149 5.46213 42.3321 5.1095C42.5492 4.75699 42.8609 4.46781 43.234 4.27281C43.6072 4.07781 44.0278 3.98431 44.4514 4.00214C44.875 4.01997 45.2857 4.14845 45.64 4.37385L49.0422 6.53373C49.0491 6.53785 49.0556 6.54258 49.0616 6.54791C49.0661 6.55022 49.07 6.55342 49.0731 6.55728Z" fill="black"/>
</g>
</g>
</svg>
