<svg width="184" height="135" viewBox="0 0 184 135" fill="none" xmlns="http://www.w3.org/2000/svg">
<circle cx="11.5256" cy="40.8882" r="9.93281" transform="rotate(-10.1345 11.5256 40.8882)" fill="white" fill-opacity="0.5"/>
<circle cx="16.4193" cy="68.2661" r="9.93281" transform="rotate(-10.1345 16.4193 68.2661)" fill="white" fill-opacity="0.5"/>
<circle cx="21.3131" cy="95.6441" r="9.93281" transform="rotate(-10.1345 21.3131 95.6441)" fill="white" fill-opacity="0.5"/>
<circle cx="26.2069" cy="123.022" r="9.93281" transform="rotate(-10.1345 26.2069 123.022)" fill="white" fill-opacity="0.5"/>
<circle cx="38.9035" cy="35.9944" r="9.93281" transform="rotate(-10.1345 38.9035 35.9944)" fill="white" fill-opacity="0.5"/>
<circle cx="43.7973" cy="63.3723" r="9.93281" transform="rotate(-10.1345 43.7973 63.3723)" fill="white" fill-opacity="0.5"/>
<circle cx="48.6911" cy="90.7503" r="9.93281" transform="rotate(-10.1345 48.6911 90.7503)" fill="white" fill-opacity="0.5"/>
<circle cx="53.5848" cy="118.128" r="9.93281" transform="rotate(-10.1345 53.5848 118.128)" fill="white" fill-opacity="0.5"/>
<circle cx="66.2814" cy="31.1007" r="9.93281" transform="rotate(-10.1345 66.2814 31.1007)" fill="white" fill-opacity="0.5"/>
<circle cx="71.1752" cy="58.4786" r="9.93281" transform="rotate(-10.1345 71.1752 58.4786)" fill="white" fill-opacity="0.5"/>
<circle cx="76.069" cy="85.8565" r="9.93281" transform="rotate(-10.1345 76.069 85.8565)" fill="white" fill-opacity="0.5"/>
<circle cx="80.9627" cy="113.234" r="9.93281" transform="rotate(-10.1345 80.9627 113.234)" fill="white" fill-opacity="0.5"/>
<circle cx="93.6593" cy="26.2069" r="9.93281" transform="rotate(-10.1345 93.6593 26.2069)" fill="white" fill-opacity="0.5"/>
<circle cx="98.5531" cy="53.5848" r="9.93281" transform="rotate(-10.1345 98.5531 53.5848)" fill="white" fill-opacity="0.5"/>
<circle cx="103.447" cy="80.9627" r="9.93281" transform="rotate(-10.1345 103.447 80.9627)" fill="white" fill-opacity="0.5"/>
<circle cx="108.341" cy="108.341" r="9.93281" transform="rotate(-10.1345 108.341 108.341)" fill="white" fill-opacity="0.5"/>
<circle cx="121.037" cy="21.3131" r="9.93281" transform="rotate(-10.1345 121.037 21.3131)" fill="white" fill-opacity="0.5"/>
<circle cx="125.931" cy="48.6911" r="9.93281" transform="rotate(-10.1345 125.931 48.6911)" fill="white" fill-opacity="0.5"/>
<circle cx="130.825" cy="76.069" r="9.93281" transform="rotate(-10.1345 130.825 76.069)" fill="white" fill-opacity="0.5"/>
<circle cx="135.719" cy="103.447" r="9.93281" transform="rotate(-10.1345 135.719 103.447)" fill="white" fill-opacity="0.5"/>
<circle cx="148.415" cy="16.4194" r="9.93281" transform="rotate(-10.1345 148.415 16.4194)" fill="white" fill-opacity="0.5"/>
<circle cx="153.309" cy="43.7973" r="9.93281" transform="rotate(-10.1345 153.309 43.7973)" fill="white" fill-opacity="0.5"/>
<circle cx="158.203" cy="71.1752" r="9.93281" transform="rotate(-10.1345 158.203 71.1752)" fill="white" fill-opacity="0.5"/>
<circle cx="163.097" cy="98.5531" r="9.93281" transform="rotate(-10.1345 163.097 98.5531)" fill="white" fill-opacity="0.5"/>
<circle cx="175.793" cy="11.5256" r="9.93281" transform="rotate(-10.1345 175.793 11.5256)" fill="white" fill-opacity="0.5"/>
<circle cx="180.687" cy="38.9035" r="9.93281" transform="rotate(-10.1345 180.687 38.9035)" fill="white" fill-opacity="0.5"/>
<circle cx="185.581" cy="66.2815" r="9.93281" transform="rotate(-10.1345 185.581 66.2815)" fill="white" fill-opacity="0.5"/>
<circle cx="190.474" cy="93.6593" r="9.93281" transform="rotate(-10.1345 190.474 93.6593)" fill="white" fill-opacity="0.5"/>
</svg>
